# xmcd
#
# Track frame offsets:
#	150
#	19040
#	39992
#	59192
#	78582
#	101835
#	122612
#	135997
#	159620
#	197359
#
# Disc length: 3030 seconds
#
# Revision: 3
# Processed by: cddbd v1.5.1PL0 Copyright (c) Steve Scherf et al.
# Submitted via: audiograbber 1.81.02
#
DISCID=7f0bd40a
DTITLE=Tribute Collaboration Album - Soul Scramble
DYEAR=2001
DGENRE=
TTITLE0=Satoshi Tomie featuring.Chara - Atari
TTITLE1=Dev Large featuring Junpei Shiina - Music Maker
TTITLE2=Makoto featuring Lori Fine - You're Divine (Edit)
TTITLE3=Pushim featuring DJ Premier - Set Me Free
TTITLE4=Suiken featuring Numb - Think One (Think Twice)(Numb Remix)
TTITLE5=Takkyu Ishino featuring Tabito Nanao - Last Scene
TTITLE6=Ambivalence featuring Twigy - Another Big Party
TTITLE7=bird featuring Suiken+Dev Large - Realizer (D.l.remix)
TTITLE8=Kyoto Jazz Massive featuring Bebel Gilberto - The View From Her Room
TTITLE9=Hiroshi Fujiwara+Shinichi Osawa featuring Crystal Kay - Lost Child
EXTD=
EXTT0=
EXTT1=
EXTT2=Featuring Lori Fine of Coldfeet on vocals
EXTT3=Featuring production by DJ Premier of Gang Starr
EXTT4=
EXTT5=
EXTT6=
EXTT7=bird gets a little hip-hop with this track
EXTT8=
EXTT9=Features Shinichi Osawa of Mondo Grosso fame
PLAYORDER=
